<svg xmlns="http://www.w3.org/2000/svg" viewBox="330 685 1400 680" style="display: block;">
<path d="M 975.634 787.72 C 1050.22 780.701 1116.35 835.564 1123.21 910.168 C 1130.07 984.773 1075.07 1050.78 1000.46 1057.49 C 926.056 1064.18 860.285 1009.37 853.441 934.99 C 846.597 860.604 901.263 794.719 975.634 787.72 z" fill="rgb(6,126,142)" transform="translate(0,0)"></path>
<path d="M 979.557 852.354 C 1018.74 847.617 1054.33 875.591 1058.99 914.787 C 1063.64 953.983 1035.59 989.513 996.386 994.085 C 957.297 998.643 921.896 970.696 917.255 931.616 C 912.615 892.536 940.487 857.076 979.557 852.354 z" fill="rgb(253,253,252)" transform="translate(0,0)"></path>
<path d="M 1243.11 1065.41 C 1283.46 1061.28 1324.58 1082.3 1350.24 1112.6 C 1377.39 1144.67 1384.16 1181.16 1380.72 1222.02 C 1313.48 1221.53 1246.24 1221.54 1179 1222.04 C 1193.01 1268.07 1230.11 1289.01 1277.18 1275.95 C 1290.9 1272.15 1300.59 1264.95 1311.62 1256.24 L 1326.29 1269.2 C 1334.38 1275.89 1345.93 1287.47 1353.97 1294.99 C 1353.41 1295.71 1352.86 1296.43 1352.3 1297.15 C 1331.53 1322.29 1301.49 1338 1268.99 1340.7 C 1227.64 1344.5 1196.69 1335.51 1164.57 1309.65 C 1083.18 1244.15 1104.89 1108.1 1203.83 1073.27 C 1217.52 1068.45 1228.69 1066.65 1243.11 1065.41 z" fill="rgb(6,126,142)" transform="translate(0,0)"></path>
<path d="M 1246.51 1126.38 C 1279.15 1123.77 1301.11 1144.47 1314.11 1172.05 C 1293.24 1172.28 1272.37 1172.35 1251.5 1172.25 C 1228.27 1172.08 1205.04 1172.11 1181.81 1172.33 C 1196.22 1144.41 1214.86 1129.58 1246.51 1126.38 z" fill="rgb(253,253,252)" transform="translate(0,0)"></path>
<path d="M 1251.27 787.345 C 1256.25 786.821 1261.05 786.731 1266.06 786.694 C 1297.05 786.177 1326.92 798.272 1348.82 820.205 C 1388.54 859.701 1381.48 900.457 1381.87 951.772 L 1382.8 1057.25 C 1372.9 1057.32 1363.08 1055.55 1353.83 1052.02 C 1314.57 1036.59 1313.99 999.502 1314.12 964.853 L 1314.33 917.471 C 1314.46 887.932 1314.03 864.35 1281.57 852.473 C 1263.83 847.363 1242.18 850.806 1229.09 864.484 C 1221.52 872.54 1216.33 882.542 1214.1 893.374 C 1211.95 903.775 1212.88 935.546 1212.88 947.963 L 1213 1053.57 C 1191.49 1054.4 1168.64 1054.07 1147.12 1053.7 C 1146.87 1019.23 1146.8 984.758 1146.91 950.288 C 1146.88 929.242 1145.58 893.438 1149.71 874.285 C 1153.02 859.32 1159.59 845.27 1168.96 833.138 C 1189 806.789 1218.86 791.812 1251.27 787.345 z" fill="rgb(6,126,142)" transform="translate(0,0)"></path>
<path d="M 988.17 1253.89 C 995.909 1234.09 1007.53 1209.94 1016.13 1189.47 C 1023.02 1173.04 1030.04 1156.67 1037.19 1140.34 C 1040.74 1132.15 1045.64 1119.91 1049.94 1112.32 C 1053.79 1105.49 1058.61 1099.26 1064.26 1093.83 C 1091.83 1067.11 1127.08 1065.51 1162.86 1066.28 C 1138.96 1082.02 1129.36 1091.23 1115.12 1116.15 C 1106.41 1132.81 1096.57 1157.13 1089.01 1174.56 L 1047.83 1269.36 C 1040.51 1286.36 1033.54 1303.68 1025.52 1320.34 C 1021.12 1329.49 1015.05 1336.22 1005.4 1340.01 C 993.797 1344.47 980.888 1344.11 969.554 1339 C 950.523 1330.2 943.119 1302.23 934.253 1282.9 C 917.677 1246.64 901.481 1210.21 885.667 1173.61 C 877.766 1155.48 867.862 1130.44 858.764 1113.48 C 852.577 1101.91 844.941 1091.17 836.04 1081.53 C 832.065 1077.21 822.318 1070.62 821.066 1067.14 L 824.37 1066.54 C 877.699 1063.5 919.865 1083.38 937.622 1134.43 C 941.584 1145.83 948.465 1160.3 953.243 1171.59 L 988.17 1253.89 z" fill="rgb(6,126,142)" transform="translate(0,0)"></path>
<path d="M 743.122 787.391 C 789.091 781.779 825.115 801.618 858.365 830.791 C 843.36 845.097 823.082 858.946 806.563 871.438 C 793.699 860.5 783.063 853.996 765.816 851.7 C 747.481 849.083 728.865 853.979 714.19 865.278 C 699.087 877.175 689.454 894.689 687.494 913.815 C 683.155 953.872 711.559 991.436 752.65 994.192 C 779.527 995.995 794.569 988.662 814.799 971.985 L 839.518 988.756 C 847.467 994.338 856.298 999.898 864.466 1005.25 C 840.663 1034.2 810.872 1051.97 773.583 1056.37 C 596.513 1077.29 562.999 807.319 743.122 787.391 z" fill="rgb(6,126,142)" transform="translate(0,0)"></path>
<path d="M 576.439 879.358 C 583.699 878.349 598.554 878.82 606.361 878.951 C 589.757 951.026 616.571 1022.1 682.366 1058.54 C 656.51 1059.59 629.433 1075.79 613.736 1095.8 C 600.224 1113.03 600.274 1119.81 580.693 1133.15 C 573.46 1137.21 567.647 1139.34 559.438 1140.42 C 540.875 1142.73 522.153 1137.58 507.387 1126.1 C 477.525 1102.51 479.621 1074.29 478.925 1040.1 C 477.591 974.601 498.495 888.114 576.439 879.358 z" fill="rgb(6,126,142)" transform="translate(0,0)"></path>
<path d="M 1477.87 971.425 C 1478.87 977.369 1478.54 996.668 1478.57 1003.47 L 1478.7 1067.01 C 1505.84 1066.89 1532.99 1066.94 1560.13 1067.15 C 1560.59 1086.03 1560.1 1106.54 1559.99 1125.54 C 1532.79 1125.87 1505.58 1125.92 1478.37 1125.68 C 1478.03 1146.55 1478.6 1167.98 1478.31 1188.79 C 1477.68 1234.89 1474.29 1276.7 1535.21 1276.81 L 1535.88 1342.66 L 1524.12 1342.98 C 1493.68 1343.3 1467.22 1334.96 1445.62 1313.07 C 1409.52 1276.49 1412.16 1243.35 1412.22 1196.51 C 1412.32 1173.14 1412.27 1149.77 1412.06 1126.41 C 1402.84 1126.09 1392.47 1126.34 1383.17 1126.35 C 1383.44 1106.78 1383.1 1086.64 1382.99 1067.02 L 1411.99 1066.85 C 1411.57 1041.32 1410.76 1021.31 1427.23 999.391 C 1441.14 980.881 1455.74 974.715 1477.87 971.425 z" fill="rgb(6,126,142)" transform="translate(0,0)"></path>
<path d="M 558.78 704.151 C 620.087 699.193 661.015 815.471 595.428 842.418 C 526.142 855.738 497.072 719.917 558.78 704.151 z" fill="rgb(6,126,142)" transform="translate(0,0)"></path>
<path d="M 432.687 756.16 C 498.245 752.105 549.746 864.36 484.99 888.677 C 416.275 901.668 371.907 772.495 432.687 756.16 z" fill="rgb(6,126,142)" transform="translate(0,0)"></path>
<path d="M 1550.09 878.481 L 1569.24 878.212 C 1568.38 888.643 1566.61 899.515 1562.42 909.159 C 1533.87 974.778 1467.63 932.805 1413.68 955.245 C 1408 957.77 1404.76 959.907 1399.5 963.215 C 1400.83 939.034 1404.03 919.636 1422.09 901.354 C 1446.27 876.881 1472.8 878.659 1503.91 878.695 C 1519.3 878.707 1534.69 878.636 1550.09 878.481 z" fill="rgb(6,126,142)" transform="translate(0,0)"></path>
<path d="M 376.555 885.119 C 413.847 883.23 441.582 903.713 457.704 936.855 C 470.019 962.172 465.502 989.453 437.573 1001.41 C 379.007 1014.2 313.918 905.405 376.555 885.119 z" fill="rgb(6,126,142)" transform="translate(0,0)"></path>
<path d="M 1676.63 1254.25 C 1683.96 1254.18 1690.7 1254.09 1698.04 1254.37 L 1698.14 1278.2 C 1698.22 1293.31 1700.9 1313 1691.89 1326.01 C 1685.99 1334.53 1676.27 1338.82 1666.4 1340.57 C 1656.19 1342.38 1642.47 1340.42 1633.92 1334.2 C 1626.07 1328.5 1621.68 1319.95 1620.2 1310.5 C 1619.3 1304.77 1618.27 1256.77 1619.73 1255.26 C 1620.68 1254.29 1622.8 1254.53 1623.95 1254.52 C 1629.26 1254.47 1634.58 1254.38 1639.89 1254.26 C 1639.92 1271.56 1639.33 1291.71 1640.23 1308.63 C 1646.84 1319.16 1652.5 1324.54 1666 1320.16 C 1671 1318.53 1676.36 1312.08 1676.52 1306.69 C 1677.02 1289.31 1676.68 1271.69 1676.63 1254.25 z" fill="rgb(6,126,142)" transform="translate(0,0)"></path>
<path d="M 1595.84 1255.2 C 1600.77 1254.61 1603.04 1254.55 1607.98 1254.52 C 1608.08 1260.98 1608.26 1267.43 1608.54 1273.88 C 1570.44 1276.68 1579.97 1301.65 1577.76 1331.04 C 1577.24 1338.03 1579.7 1339.29 1572.25 1339.78 C 1567.16 1339.82 1562.07 1339.77 1556.98 1339.62 C 1557.06 1303.44 1550.36 1264.99 1595.84 1255.2 z" fill="rgb(6,126,142)" transform="translate(0,0)"></path>
<metadata><recraft-signature>{"signed_by": "recraft", "signature_b64": "/b/5Iqlj9/+p21l2/5ldahou3qA1E8aJ2l8/T9O9zs/6QZ7MoF5yFMsHYzR5GYyXAtDR7/Pbki2bHjz4e0A3Dw==", "signing_algo": "Ed25519", "generation_timestamp": 1771574658, "identifier": "084948c7-b410-41f4-bb4b-7a2123db0cc0"}</recraft-signature></metadata></svg>